<?xml version="1.0" encoding="UTF-8"?>
<svg version="1.1" xmlns="http://www.w3.org/2000/svg" width="489" height="501">
<path d="M0 0 C161.37 0 322.74 0 489 0 C489 165.33 489 330.66 489 501 C327.63 501 166.26 501 0 501 C0 335.67 0 170.34 0 0 Z " fill="#000000" transform="translate(0,0)"/>
<path d="M0 0 C27.39 0 54.78 0 83 0 C89.15812507 27.71156281 82.87622165 55.07898147 68 79 C65.2490515 82.92545213 62.24467138 86.47492492 59 90 C58.52433594 90.52335937 58.04867187 91.04671875 57.55859375 91.5859375 C40.29352287 110.39647509 15.59810581 124.10675791 -10.30758667 125.26107788 C-14.97511959 125.37961907 -19.64030844 125.33888546 -24.30859375 125.29296875 C-26.01351035 125.28735632 -27.71843188 125.28309404 -29.4233551 125.28010559 C-33.85712631 125.26878619 -38.29059101 125.23943434 -42.72424316 125.20599365 C-47.269896 125.17501033 -51.81559957 125.16154058 -56.36132812 125.14648438 C-65.24101826 125.11454883 -74.1204834 125.06351393 -83 125 C-82.99777939 125.81001465 -82.99555878 126.6200293 -82.99327087 127.45458984 C-82.96586104 137.96971787 -82.9480399 148.48484203 -82.9375 159 C-82.93664398 159.84788589 -82.93578796 160.69577179 -82.93490601 161.5693512 C-82.91229494 186.96715295 -83.06607816 212.35579953 -83.5 237.75 C-83.51195782 238.45024292 -83.52391563 239.15048584 -83.53623581 239.87194824 C-83.68021497 248.24816829 -83.83423721 256.62418187 -84 265 C-84.66 265 -85.32 265 -86 265 C-90.17942136 250.78996738 -89.12208997 235.65643122 -89 221 C-89.66 220.67 -90.32 220.34 -91 220 C-90.34 220 -89.68 220 -89 220 C-89 219.34 -89 218.68 -89 218 C-89.66 218 -90.32 218 -91 218 C-91 214.37 -91 210.74 -91 207 C-90.01 207 -89.02 207 -88 207 C-88.33 206.34 -88.66 205.68 -89 205 C-88.67 204.34 -88.34 203.68 -88 203 C-88.66 203 -89.32 203 -90 203 C-90.33 203.66 -90.66 204.32 -91 205 C-91.33 204.01 -91.66 203.02 -92 202 C-93.04827948 206.44858098 -93.33261243 210.88826994 -93.5625 215.4375 C-93.60568359 216.25355713 -93.64886719 217.06961426 -93.69335938 217.91040039 C-94.05576866 225.53753388 -94.0618358 233.15484876 -93.96313477 240.78881836 C-93.95467529 241.67190674 -93.94621582 242.55499512 -93.9375 243.46484375 C-93.92589844 244.244646 -93.91429687 245.02444824 -93.90234375 245.82788086 C-94.00099999 248.02224237 -94.46447642 249.87714446 -95 252 C-95 253.32 -95 254.64 -95 256 C-95.66 256 -96.32 256 -97 256 C-97 256.99 -97 257.98 -97 259 C-96.34 259 -95.68 259 -95 259 C-95 260.32 -95 261.64 -95 263 C-95.66 263 -96.32 263 -97 263 C-97 265.31 -97 267.62 -97 270 C-97.66 269.67 -98.32 269.34 -99 269 C-98.67 270.65 -98.34 272.3 -98 274 C-97.01 274.33 -96.02 274.66 -95 275 C-96.98 277.31 -98.96 279.62 -101 282 C-101.33 281.34 -101.66 280.68 -102 280 C-102.66 280 -103.32 280 -104 280 C-104.28875 278.865625 -104.5775 277.73125 -104.875 276.5625 C-105.24625 275.386875 -105.6175 274.21125 -106 273 C-106.66 272.67 -107.32 272.34 -108 272 C-108 271.34 -108 270.68 -108 270 C-107.34 270 -106.68 270 -106 270 C-106.47705823 267.72872279 -106.95671706 265.45799168 -107.4375 263.1875 C-107.70433594 261.92292969 -107.97117188 260.65835937 -108.24609375 259.35546875 C-108.93427886 256.02954587 -108.93427886 256.02954587 -110 253 C-110.33534729 255.93728294 -110.66836013 258.87479818 -111 261.8125 C-111.09539062 262.64587891 -111.19078125 263.47925781 -111.2890625 264.33789062 C-111.42441406 265.54155273 -111.42441406 265.54155273 -111.5625 266.76953125 C-111.64628906 267.50792236 -111.73007813 268.24631348 -111.81640625 269.00708008 C-112.04586728 271.16433197 -112.04586728 271.16433197 -112 274 C-112.99 273.67 -113.98 273.34 -115 273 C-114.98839844 272.33613281 -114.97679687 271.67226563 -114.96484375 270.98828125 C-114.88106591 264.43693213 -114.88106591 264.43693213 -116 258 C-116.33 259.98 -116.66 261.96 -117 264 C-117.99 263.67 -118.98 263.34 -120 263 C-120.06058594 262.29875 -120.12117188 261.5975 -120.18359375 260.875 C-120.56243361 256.58536715 -120.95331499 252.32679504 -121.5625 248.0625 C-122.17083332 243.56083342 -122.02931103 239.0722319 -121.9375 234.5390625 C-121.81986296 232.0060506 -121.81986296 232.0060506 -123 230 C-123.07251244 228.40255087 -123.08374854 226.80207787 -123.0625 225.203125 C-123.05476563 224.2440625 -123.04703125 223.285 -123.0390625 222.296875 C-123.01322112 220.28124742 -122.98718258 218.26562236 -122.9609375 216.25 C-122.92164065 211.35099247 -123.08950432 206.83089442 -124 202 C-123.5625 198.625 -123.5625 198.625 -123 196 C-124.32 196.33 -125.64 196.66 -127 197 C-126.67 197.99 -126.34 198.98 -126 200 C-126.66 200 -127.32 200 -128 200 C-128 201.32 -128 202.64 -128 204 C-128.66 204 -129.32 204 -130 204 C-129.835 205.0725 -129.67 206.145 -129.5 207.25 C-129.01604679 210.87964909 -129 214.34576961 -129 218 C-128.01 218.33 -127.02 218.66 -126 219 C-126.99 219.33 -127.98 219.66 -129 220 C-128.82597656 220.57363281 -128.65195313 221.14726562 -128.47265625 221.73828125 C-127.97069866 224.14021052 -128.09084304 225.76946074 -128.4375 228.1875 C-129.32387903 235.76717707 -129.07517849 243.38191298 -129 251 C-129 253.75087258 -129.47421603 256.40708052 -129.87890625 259.125 C-130.16406415 261.09181239 -130.16406415 261.09181239 -129 263 C-128.74029809 265.46428256 -128.53410044 267.90426377 -128.375 270.375 C-128.3234375 271.04789062 -128.271875 271.72078125 -128.21875 272.4140625 C-127.99083754 275.81934274 -127.91828466 278.74728953 -129 282 C-129.7165523 285.18467688 -130 287.68745922 -130 291 C-130.66 291 -131.32 291 -132 291 C-133.88938477 285.30807986 -135.24125483 279.9621308 -135.75 273.984375 C-136.06986086 271.44547944 -136.88928837 269.2954707 -138 267 C-138 269.97 -138 272.94 -138 276 C-137.34 276 -136.68 276 -136 276 C-136 276.66 -136 277.32 -136 278 C-136.66 278 -137.32 278 -138 278 C-137.98839844 278.58007812 -137.97679687 279.16015625 -137.96484375 279.7578125 C-137.92274633 283.40224608 -137.94662087 286.71709061 -138.625 290.3125 C-139.05497065 293.39395632 -138.45922439 294.3551558 -137 297 C-138 300 -138 300 -140 302 C-144.62339056 294.39377682 -144.62339056 294.39377682 -145 290 C-144.67 289.34 -144.34 288.68 -144 288 C-144.66 287.67 -145.32 287.34 -146 287 C-145.67 284.03 -145.34 281.06 -145 278 C-145.66 277.67 -146.32 277.34 -147 277 C-147.39460023 274.67624308 -147.72230092 272.3406065 -148 270 C-148.18304688 269.37222656 -148.36609375 268.74445313 -148.5546875 268.09765625 C-149.10388291 265.51065681 -148.87287075 263.37090855 -148.5625 260.75 C-148.46066406 259.85796875 -148.35882813 258.9659375 -148.25390625 258.046875 C-148.17011719 257.37140625 -148.08632812 256.6959375 -148 256 C-148.99 256.33 -149.98 256.66 -151 257 C-152.32334264 253.02997208 -151.14709935 250.23738515 -150 246.375 C-149.27966504 243.92221387 -148.61628697 241.48292541 -148 239 C-148.33 238.67 -148.66 238.34 -149 238 C-150.45004005 231.74334571 -150.00077689 227.64146055 -147 222 C-146.34 222 -145.68 222 -145 222 C-145 220.68 -145 219.36 -145 218 C-145.66 218 -146.32 218 -147 218 C-148.07999887 214.7600034 -147.92129428 213.61636465 -147.1875 210.375 C-147.01605469 209.57835937 -146.84460938 208.78171875 -146.66796875 207.9609375 C-146 206 -146 206 -144 205 C-144 205.99 -144 206.98 -144 208 C-143.34 207.67 -142.68 207.34 -142 207 C-142.33 205.35 -142.66 203.7 -143 202 C-143.66 202 -144.32 202 -145 202 C-146.625 199.5 -146.625 199.5 -148 197 C-147.98839844 197.67546875 -147.97679687 198.3509375 -147.96484375 199.046875 C-147.95130859 200.38492188 -147.95130859 200.38492188 -147.9375 201.75 C-147.92589844 202.63171875 -147.91429687 203.5134375 -147.90234375 204.421875 C-147.99173802 206.7818838 -148.33087179 208.74498524 -149 211 C-149.66 211 -150.32 211 -151 211 C-150.814375 212.051875 -150.62875 213.10375 -150.4375 214.1875 C-150.04920669 217.57119882 -150.11752515 219.76425888 -151 223 C-151.66 223 -152.32 223 -153 223 C-152.9690625 224.670625 -152.9690625 224.670625 -152.9375 226.375 C-153 230 -153 230 -154 232 C-153.34 232.33 -152.68 232.66 -152 233 C-152.66 233 -153.32 233 -154 233 C-153.97679687 233.58265625 -153.95359375 234.1653125 -153.9296875 234.765625 C-153.77668971 241.71609604 -154.7469175 248.1797876 -156 255 C-156.35768375 257.33084027 -156.68137906 259.66344644 -157 262 C-157.66 261.67 -158.32 261.34 -159 261 C-159 191.37 -159 121.74 -159 50 C-86.625 49.75 -86.625 49.75 -63.80322266 49.70214844 C-57.03079305 49.66891358 -57.03079305 49.66891358 -50.25839233 49.63043213 C-47.25044755 49.61348091 -44.24270214 49.607566 -41.23471069 49.60845947 C-37.38875148 49.60923459 -33.54331933 49.59080296 -29.69749713 49.55891085 C-28.29175256 49.55044188 -26.88594826 49.54852017 -25.48018956 49.55417585 C-15.54680608 49.58905727 -8.09235896 48.26679632 0.3125 42.875 C6.39668003 36.36634229 9.33913387 28.50741021 9.2109375 19.6875 C8.56342362 11.43769352 5.07561038 6.76748051 0 0 Z " fill="#FCFCFC" transform="translate(312,153)"/>
<path d="M0 0 C2.54738958 0.54288648 2.54738958 0.54288648 5.07254028 -0.06956482 C9.63123017 -0.76760132 14.07842841 -0.73267061 18.68310547 -0.71508789 C19.6885994 -0.71523392 20.69409332 -0.71537994 21.73005676 -0.7155304 C25.04141423 -0.71483577 28.3527149 -0.70706444 31.6640625 -0.69921875 C33.96477223 -0.69735297 36.26548236 -0.69592982 38.56619263 -0.69493103 C44.61272281 -0.69111844 50.65922885 -0.68129889 56.70574951 -0.67022705 C62.87935052 -0.65998588 69.05295544 -0.65542761 75.2265625 -0.65039062 C87.33334392 -0.6396755 99.44010745 -0.62261418 111.546875 -0.6015625 C111.546875 0.0584375 111.546875 0.7184375 111.546875 1.3984375 C112.206875 1.3984375 112.866875 1.3984375 113.546875 1.3984375 C113.546875 0.7384375 113.546875 0.0784375 113.546875 -0.6015625 C150.42367592 -1.48958401 180.75745805 3.74584057 208.671875 30.0234375 C219.83386262 41.62101488 230.46859143 57.22266392 232.546875 73.3984375 C200.38425861 73.42123946 168.22164452 73.43894168 136.05902193 73.44950283 C132.26379456 73.45075357 128.4685672 73.45204789 124.67333984 73.45336914 C123.91776355 73.45363145 123.16218725 73.45389376 122.38371471 73.45416402 C110.14204663 73.45851789 97.90038325 73.4664039 85.65871796 73.4755903 C73.10200114 73.48493468 60.54528679 73.49049478 47.98856664 73.49252599 C40.23750343 73.49389958 32.48645346 73.49824136 24.73539433 73.50635397 C18.79655192 73.51225401 12.85771635 73.51289446 6.91887093 73.51154518 C4.4791385 73.51182111 2.03940558 73.51382107 -0.40032387 73.51764297 C-3.7226508 73.52259378 -7.04492036 73.52143058 -10.36724854 73.51869202 C-11.82638636 73.52306128 -11.82638636 73.52306128 -13.31500173 73.52751881 C-14.204265 73.52552776 -15.09352828 73.52353671 -16.00973892 73.52148533 C-16.77677399 73.52186505 -17.54380906 73.52224477 -18.33408761 73.522636 C-20.48766308 73.3964132 -22.38298231 72.99017983 -24.453125 72.3984375 C-24.453125 71.7384375 -24.453125 71.0784375 -24.453125 70.3984375 C-17.93932026 69.59141744 -11.58270612 69.32402642 -5.01953125 69.4609375 C-2.33213971 69.52090767 -2.33213971 69.52090767 0.546875 68.3984375 C2.24704344 68.31665636 3.95023797 68.29094249 5.65234375 68.30078125 C6.63525391 68.30400391 7.61816406 68.30722656 8.63085938 68.31054688 C10.16709961 68.32311523 10.16709961 68.32311523 11.734375 68.3359375 C12.77013672 68.34044922 13.80589844 68.34496094 14.87304688 68.34960938 C17.43104766 68.3613974 19.98893233 68.37785235 22.546875 68.3984375 C22.876875 67.7384375 23.206875 67.0784375 23.546875 66.3984375 C23.546875 67.0584375 23.546875 67.7184375 23.546875 68.3984375 C24.536875 67.7384375 25.526875 67.0784375 26.546875 66.3984375 C29.49761894 66.22616103 32.35176784 66.16650683 35.30078125 66.203125 C36.58576759 66.20736984 36.58576759 66.20736984 37.89671326 66.21170044 C40.63440924 66.22289437 43.37177804 66.24798488 46.109375 66.2734375 C47.95767754 66.28346943 49.80598524 66.29259491 51.65429688 66.30078125 C56.28527099 66.323206 60.91601433 66.35934328 65.546875 66.3984375 C69.1961226 66.3984375 72.84425027 66.27197472 76.4921875 66.1796875 C77.3771994 66.15749146 78.2622113 66.13529541 79.17404175 66.11242676 C82.00665877 66.04133098 84.83926691 65.96988808 87.671875 65.8984375 C89.58984318 65.85023759 91.50781192 65.80206022 93.42578125 65.75390625 C98.13281912 65.63567838 102.83984906 65.51713916 107.546875 65.3984375 C106.48295029 65.38813004 105.41902557 65.37782257 104.32286072 65.36720276 C94.19055666 65.26853047 84.05830138 65.1657273 73.92607784 65.05909824 C68.71969779 65.00443443 63.5133119 64.95111929 58.30688477 64.90112305 C-9.60569578 64.24586672 -9.60569578 64.24586672 -13.453125 60.3984375 C-14.113125 61.0584375 -14.773125 61.7184375 -15.453125 62.3984375 C-17.21875 62.05859375 -17.21875 62.05859375 -19.453125 61.3984375 C-21.36673471 61.18195372 -23.28396121 60.99586782 -25.203125 60.8359375 C-26.18796875 60.75214844 -27.1728125 60.66835937 -28.1875 60.58203125 C-28.93515625 60.52144531 -29.6828125 60.46085937 -30.453125 60.3984375 C-29.793125 61.0584375 -29.133125 61.7184375 -28.453125 62.3984375 C-31.84504863 61.80560129 -33.6639007 60.63100561 -36.203125 58.3359375 C-36.81671875 57.78808594 -37.4303125 57.24023438 -38.0625 56.67578125 C-38.52140625 56.25425781 -38.9803125 55.83273438 -39.453125 55.3984375 C-35.8089476 52.9689859 -33.74071228 53.23664175 -29.453125 53.3984375 C-29.453125 52.7384375 -29.453125 52.0784375 -29.453125 51.3984375 C-28.793125 51.3984375 -28.133125 51.3984375 -27.453125 51.3984375 C-27.123125 50.7384375 -26.793125 50.0784375 -26.453125 49.3984375 C-25.74542969 49.56859375 -25.03773438 49.73875 -24.30859375 49.9140625 C-21.31930127 50.42113811 -18.78278133 50.395408 -15.765625 50.1484375 C-14.33669922 50.04789063 -14.33669922 50.04789063 -12.87890625 49.9453125 C-10.09680411 49.61111796 -10.09680411 49.61111796 -8.453125 46.3984375 C-9.84724609 46.41583984 -9.84724609 46.41583984 -11.26953125 46.43359375 C-23.54802834 46.52321782 -23.54802834 46.52321782 -29.453125 45.3984375 C-29.453125 44.7384375 -29.453125 44.0784375 -29.453125 43.3984375 C-21.533125 42.9034375 -21.533125 42.9034375 -13.453125 42.3984375 C-13.453125 41.7384375 -13.453125 41.0784375 -13.453125 40.3984375 C-14.773125 40.3984375 -16.093125 40.3984375 -17.453125 40.3984375 C-17.123125 39.4084375 -16.793125 38.4184375 -16.453125 37.3984375 C-9.77619117 36.85258597 -3.15590078 36.32225938 3.546875 36.4609375 C7.63105703 36.51491347 10.71047139 35.89557062 14.546875 34.3984375 C15.866875 34.3984375 17.186875 34.3984375 18.546875 34.3984375 C18.546875 35.0584375 18.546875 35.7184375 18.546875 36.3984375 C19.289375 36.0684375 20.031875 35.7384375 20.796875 35.3984375 C25.21336315 34.22070733 29.10041249 34.29127066 33.64453125 34.42578125 C36.53011245 34.49271291 36.53011245 34.49271291 39.23046875 33.83984375 C41.546875 33.3984375 41.546875 33.3984375 44.546875 34.3984375 C46.2484375 34.12 46.2484375 34.12 47.984375 33.8359375 C51.64205356 33.38674891 52.52783912 33.6093792 55.546875 35.3984375 C56.206875 35.0684375 56.866875 34.7384375 57.546875 34.3984375 C61.22017464 34.26486297 64.04540459 34.2312807 67.546875 35.3984375 C67.546875 34.0784375 67.546875 32.7584375 67.546875 31.3984375 C66.8763208 31.40367432 66.2057666 31.40891113 65.51489258 31.41430664 C62.463063 31.43515355 59.41124844 31.44812219 56.359375 31.4609375 C54.77672852 31.47350586 54.77672852 31.47350586 53.16210938 31.48632812 C51.62973633 31.49116211 51.62973633 31.49116211 50.06640625 31.49609375 C49.12901611 31.50133057 48.19162598 31.50656738 47.22583008 31.51196289 C44.56638023 31.39926407 42.13766927 30.99220399 39.546875 30.3984375 C39.546875 29.7384375 39.546875 29.0784375 39.546875 28.3984375 C37.236875 28.7284375 34.926875 29.0584375 32.546875 29.3984375 C32.546875 28.7384375 32.546875 28.0784375 32.546875 27.3984375 C31.94875 27.7284375 31.350625 28.0584375 30.734375 28.3984375 C28.546875 29.3984375 28.546875 29.3984375 25.546875 29.3984375 C25.216875 30.0584375 24.886875 30.7184375 24.546875 31.3984375 C24.546875 30.4084375 24.546875 29.4184375 24.546875 28.3984375 C23.886875 28.7284375 23.226875 29.0584375 22.546875 29.3984375 C19.09341865 29.53126274 15.94803711 29.4736554 12.546875 28.8359375 C9.51600084 28.24314381 9.51600084 28.24314381 6.37109375 28.89453125 C2.23786692 29.4391546 -1.50370568 29.334192 -5.640625 29.0234375 C-6.33865234 28.97960937 -7.03667969 28.93578125 -7.75585938 28.890625 C-11.10314532 28.66131521 -14.20857173 28.21963957 -17.453125 27.3984375 C-17.948125 27.8934375 -17.948125 27.8934375 -18.453125 28.3984375 C-20.23383746 28.48569973 -22.0179564 28.50542791 -23.80078125 28.49609375 C-24.88037109 28.49287109 -25.95996094 28.48964844 -27.07226562 28.48632812 C-28.20857422 28.47794922 -29.34488281 28.46957031 -30.515625 28.4609375 C-31.65580078 28.45642578 -32.79597656 28.45191406 -33.97070312 28.44726562 C-36.79822851 28.43543497 -39.6256514 28.4189516 -42.453125 28.3984375 C-42.453125 27.7384375 -42.453125 27.0784375 -42.453125 26.3984375 C-43.113125 26.3984375 -43.773125 26.3984375 -44.453125 26.3984375 C-44.453125 27.0584375 -44.453125 27.7184375 -44.453125 28.3984375 C-45.113125 28.3984375 -45.773125 28.3984375 -46.453125 28.3984375 C-46.453125 27.4084375 -46.453125 26.4184375 -46.453125 25.3984375 C-43.483125 24.4084375 -40.513125 23.4184375 -37.453125 22.3984375 C-40.59886177 20.30127965 -42.46768751 19.87839191 -46.140625 19.2734375 C-47.13449219 19.10585937 -48.12835938 18.93828125 -49.15234375 18.765625 C-49.91160156 18.64445312 -50.67085938 18.52328125 -51.453125 18.3984375 C-51.453125 19.0584375 -51.453125 19.7184375 -51.453125 20.3984375 C-53.763125 20.0684375 -56.073125 19.7384375 -58.453125 19.3984375 C-57.07000637 16.63220024 -55.552288 16.44441364 -52.703125 15.3359375 C-51.41148438 14.82353516 -51.41148438 14.82353516 -50.09375 14.30078125 C-44.8657511 12.5142905 -40.3260863 12.34786118 -34.85546875 12.55859375 C-32.2227608 12.38307989 -30.75721421 11.61994009 -28.453125 10.3984375 C-27.463125 10.3984375 -26.473125 10.3984375 -25.453125 10.3984375 C-25.453125 9.7384375 -25.453125 9.0784375 -25.453125 8.3984375 C-24.463125 8.3984375 -23.473125 8.3984375 -22.453125 8.3984375 C-22.453125 9.0584375 -22.453125 9.7184375 -22.453125 10.3984375 C-20.473125 10.3984375 -18.493125 10.3984375 -16.453125 10.3984375 C-16.453125 8.7484375 -16.453125 7.0984375 -16.453125 5.3984375 C-15.463125 5.0684375 -14.473125 4.7384375 -13.453125 4.3984375 C-13.453125 5.0584375 -13.453125 5.7184375 -13.453125 6.3984375 C-11.6896875 6.615 -11.6896875 6.615 -9.890625 6.8359375 C0.77713464 8.17648783 0.77713464 8.17648783 3.45703125 8.94921875 C5.861202 9.46600312 7.79454941 9.35613306 10.234375 9.0859375 C11.41580078 8.96798828 11.41580078 8.96798828 12.62109375 8.84765625 C13.25660156 8.69941406 13.89210938 8.55117187 14.546875 8.3984375 C14.876875 7.7384375 15.206875 7.0784375 15.546875 6.3984375 C16.041875 7.8834375 16.041875 7.8834375 16.546875 9.3984375 C17.536875 9.8934375 17.536875 9.8934375 18.546875 10.3984375 C18.876875 9.7384375 19.206875 9.0784375 19.546875 8.3984375 C21.546875 10.3984375 21.546875 10.3984375 21.546875 13.3984375 C23.196875 13.3984375 24.846875 13.3984375 26.546875 13.3984375 C26.546875 12.7384375 26.546875 12.0784375 26.546875 11.3984375 C29.21354167 12.73177083 31.88020833 14.06510417 34.546875 15.3984375 C34.051875 13.9134375 34.051875 13.9134375 33.546875 12.3984375 C34.206875 12.3984375 34.866875 12.3984375 35.546875 12.3984375 C35.546875 14.0484375 35.546875 15.6984375 35.546875 17.3984375 C35.876875 16.7384375 36.206875 16.0784375 36.546875 15.3984375 C41.02228484 14.13614242 41.02228484 14.13614242 43.546875 15.3984375 C43.051875 13.9134375 43.051875 13.9134375 42.546875 12.3984375 C43.866875 12.0684375 45.186875 11.7384375 46.546875 11.3984375 C43.49038884 10.27758862 43.49038884 10.27758862 39.921875 9.8984375 C36.546875 9.3984375 36.546875 9.3984375 35.546875 8.3984375 C34.02759462 8.32663786 32.50520018 8.31451743 30.984375 8.3359375 C30.15808594 8.34496094 29.33179688 8.35398437 28.48046875 8.36328125 C27.84238281 8.37488281 27.20429688 8.38648437 26.546875 8.3984375 C26.546875 7.4084375 26.546875 6.4184375 26.546875 5.3984375 C22.916875 5.3984375 19.286875 5.3984375 15.546875 5.3984375 C15.051875 3.9134375 15.051875 3.9134375 14.546875 2.3984375 C14.216875 3.0584375 13.886875 3.7184375 13.546875 4.3984375 C12.37125 4.12 12.37125 4.12 11.171875 3.8359375 C8.57597725 3.13881484 8.57597725 3.13881484 6.546875 4.3984375 C3.98146979 4.14766193 1.4683099 3.83914416 -1.078125 3.4609375 C-1.78453125 3.36103516 -2.4909375 3.26113281 -3.21875 3.15820312 C-4.96434107 2.91051791 -6.70884584 2.65519879 -8.453125 2.3984375 C-8.453125 3.3884375 -8.453125 4.3784375 -8.453125 5.3984375 C-10.453125 4.3984375 -10.453125 4.3984375 -11.453125 2.3984375 C-14.03264374 1.70749854 -14.03264374 1.70749854 -17.015625 1.2734375 C-18.02753906 1.10585937 -19.03945312 0.93828125 -20.08203125 0.765625 C-20.86449219 0.64445312 -21.64695313 0.52328125 -22.453125 0.3984375 C-22.453125 0.0684375 -22.453125 -0.2615625 -22.453125 -0.6015625 C-14.86566093 -1.72102441 -7.50293417 -1.8398915 0 0 Z " fill="#646464" transform="translate(159.453125,72.6015625)"/>
<path d="M0 0 C2.57984878 0.54238238 2.57984878 0.54238238 5.27908325 -0.06956482 C8.70842972 -0.62786367 11.90518627 -0.72164116 15.37841797 -0.71508789 C16.03278336 -0.71523392 16.68714874 -0.71537994 17.36134338 -0.7155304 C19.50395126 -0.71483897 21.64646999 -0.70708302 23.7890625 -0.69921875 C25.28264315 -0.69735183 26.77622442 -0.69592922 28.26980591 -0.69493103 C32.18572707 -0.69112744 36.10161068 -0.68131574 40.01751709 -0.67022705 C44.01948539 -0.65996638 48.02145981 -0.65542346 52.0234375 -0.65039062 C59.8646005 -0.6396914 67.70573307 -0.6226411 75.546875 -0.6015625 C75.216875 0.0584375 74.886875 0.7184375 74.546875 1.3984375 C73.226875 1.3984375 71.906875 1.3984375 70.546875 1.3984375 C70.670625 2.6771875 70.794375 3.9559375 70.921875 5.2734375 C71.02628906 6.35238281 71.02628906 6.35238281 71.1328125 7.453125 C71.41062249 9.62511995 71.41062249 9.62511995 73.546875 11.3984375 C75.66472613 12.51628863 75.66472613 12.51628863 78.546875 13.3984375 C75.33236231 15.00569385 72.11074964 14.45591935 68.546875 14.3984375 C68.546875 15.0584375 68.546875 15.7184375 68.546875 16.3984375 C67.886875 16.0684375 67.226875 15.7384375 66.546875 15.3984375 C67.041875 13.9134375 67.041875 13.9134375 67.546875 12.3984375 C65.54563139 12.72422134 63.54584628 13.05898955 61.546875 13.3984375 C60.2165625 13.615 60.2165625 13.615 58.859375 13.8359375 C56.29301222 14.3204426 56.29301222 14.3204426 53.546875 16.3984375 C53.546875 15.7384375 53.546875 15.0784375 53.546875 14.3984375 C52.226875 14.7284375 50.906875 15.0584375 49.546875 15.3984375 C48.556875 13.9134375 48.556875 13.9134375 47.546875 12.3984375 C46.556875 12.0684375 45.566875 11.7384375 44.546875 11.3984375 C44.051875 10.9034375 44.051875 10.9034375 43.546875 10.3984375 C42.391875 10.2334375 41.236875 10.0684375 40.046875 9.8984375 C36.546875 9.3984375 36.546875 9.3984375 35.546875 8.3984375 C34.02759462 8.32663786 32.50520018 8.31451743 30.984375 8.3359375 C30.15808594 8.34496094 29.33179688 8.35398437 28.48046875 8.36328125 C27.84238281 8.37488281 27.20429688 8.38648437 26.546875 8.3984375 C26.546875 7.4084375 26.546875 6.4184375 26.546875 5.3984375 C22.916875 5.3984375 19.286875 5.3984375 15.546875 5.3984375 C15.051875 3.9134375 15.051875 3.9134375 14.546875 2.3984375 C14.216875 3.0584375 13.886875 3.7184375 13.546875 4.3984375 C12.763125 4.2128125 11.979375 4.0271875 11.171875 3.8359375 C8.57597725 3.13881484 8.57597725 3.13881484 6.546875 4.3984375 C3.98146979 4.14766193 1.4683099 3.83914416 -1.078125 3.4609375 C-1.78453125 3.36103516 -2.4909375 3.26113281 -3.21875 3.15820312 C-4.96434107 2.91051791 -6.70884584 2.65519879 -8.453125 2.3984375 C-8.453125 3.3884375 -8.453125 4.3784375 -8.453125 5.3984375 C-10.453125 4.3984375 -10.453125 4.3984375 -11.453125 2.3984375 C-14.03264374 1.70749854 -14.03264374 1.70749854 -17.015625 1.2734375 C-18.02753906 1.10585937 -19.03945312 0.93828125 -20.08203125 0.765625 C-20.86449219 0.64445312 -21.64695313 0.52328125 -22.453125 0.3984375 C-22.453125 0.0684375 -22.453125 -0.2615625 -22.453125 -0.6015625 C-14.86566093 -1.72102441 -7.50293417 -1.8398915 0 0 Z " fill="#5D5D5D" transform="translate(159.453125,72.6015625)"/>
<path d="M0 0 C0.66 0 1.32 0 2 0 C2 0.66 2 1.32 2 2 C3.32 2 4.64 2 6 2 C5.67 2.66 5.34 3.32 5 4 C5 6.42797311 5.50085685 8.62907005 6 11 C4.68 11.99 3.36 12.98 2 14 C2.495 14.99 2.495 14.99 3 16 C3.66 16 4.32 16 5 16 C5.33 15.34 5.66 14.68 6 14 C6.66 14 7.32 14 8 14 C8 12.35 8 10.7 8 9 C8.99 9 9.98 9 11 9 C10.38461538 15.52307692 10.38461538 15.52307692 8.4375 17.9375 C7.963125 18.288125 7.48875 18.63875 7 19 C7.66 19.66 8.32 20.32 9 21 C8.505 22.485 8.505 22.485 8 24 C4.44326383 24.08083491 1.43184765 23.88973828 -2 23 C-2.495 23.495 -2.495 23.495 -3 24 C-4.78071246 24.08726223 -6.5648314 24.10699041 -8.34765625 24.09765625 C-9.42724609 24.09443359 -10.50683594 24.09121094 -11.61914062 24.08789062 C-12.75544922 24.07951172 -13.89175781 24.07113281 -15.0625 24.0625 C-16.20267578 24.05798828 -17.34285156 24.05347656 -18.51757812 24.04882812 C-21.34510351 24.03699747 -24.1725264 24.0205141 -27 24 C-27 23.34 -27 22.68 -27 22 C-27.66 22 -28.32 22 -29 22 C-29 22.66 -29 23.32 -29 24 C-29.66 24 -30.32 24 -31 24 C-31 23.01 -31 22.02 -31 21 C-28.03 20.01 -25.06 19.02 -22 18 C-25.14573677 15.90284215 -27.01456251 15.47995441 -30.6875 14.875 C-32.17830078 14.62363281 -32.17830078 14.62363281 -33.69921875 14.3671875 C-34.45847656 14.24601562 -35.21773438 14.12484375 -36 14 C-36 14.66 -36 15.32 -36 16 C-38.31 15.67 -40.62 15.34 -43 15 C-41.61688137 12.23376274 -40.099163 12.04597614 -37.25 10.9375 C-36.38890625 10.59589844 -35.5278125 10.25429687 -34.640625 9.90234375 C-29.4126261 8.115853 -24.8729613 7.94942368 -19.40234375 8.16015625 C-16.7696358 7.98464239 -15.30408921 7.22150259 -13 6 C-12.01 6 -11.02 6 -10 6 C-10 5.34 -10 4.68 -10 4 C-9.01 4 -8.02 4 -7 4 C-7 4.66 -7 5.32 -7 6 C-5.02 6 -3.04 6 -1 6 C-1.020625 5.195625 -1.04125 4.39125 -1.0625 3.5625 C-1 1 -1 1 0 0 Z " fill="#5C5C5C" transform="translate(144,77)"/>
<path d="M0 0 C0.495 0.99 0.495 0.99 1 2 C1.99 1.34 2.98 0.68 4 0 C6.97391061 -0.17222348 9.85202918 -0.23194201 12.82421875 -0.1953125 C13.68561966 -0.1924826 14.54702057 -0.18965271 15.43452454 -0.18673706 C18.18565769 -0.17554237 20.93646525 -0.15043921 23.6875 -0.125 C25.55272967 -0.11496927 27.41796445 -0.10584359 29.28320312 -0.09765625 C33.8555942 -0.07560538 38.42774189 -0.04108049 43 0 C42.67 0.99 42.34 1.98 42 3 C41.505 2.01 41.505 2.01 41 1 C40.01 1.99 39.02 2.98 38 4 C38.9590625 4.185625 38.9590625 4.185625 39.9375 4.375 C40.618125 4.58125 41.29875 4.7875 42 5 C42.495 5.99 42.495 5.99 43 7 C31.85607977 7.02315917 20.71216525 7.04093337 9.56822586 7.05181217 C4.39378256 7.05703315 -0.78064429 7.06411662 -5.95507812 7.07543945 C-10.94766654 7.08629614 -15.94023913 7.09228276 -20.93283844 7.09487724 C-22.8386383 7.09672646 -24.74443728 7.10033746 -26.65023041 7.10573006 C-29.31729513 7.11297734 -31.98429422 7.11398937 -34.65136719 7.11352539 C-35.8360408 7.1189183 -35.8360408 7.1189183 -37.04464722 7.12442017 C-40.53768172 7.11783445 -43.6396601 6.93716073 -47 6 C-47 5.34 -47 4.68 -47 4 C-40.48619526 3.19297994 -34.12958112 2.92558892 -27.56640625 3.0625 C-24.87901471 3.12247017 -24.87901471 3.12247017 -22 2 C-20.29983156 1.91821886 -18.59663703 1.89250499 -16.89453125 1.90234375 C-15.91162109 1.90556641 -14.92871094 1.90878906 -13.91601562 1.91210938 C-12.37977539 1.92467773 -12.37977539 1.92467773 -10.8125 1.9375 C-9.25885742 1.94426758 -9.25885742 1.94426758 -7.67382812 1.95117188 C-5.11582734 1.9629599 -2.55794267 1.97941485 0 2 C0 1.34 0 0.68 0 0 Z " fill="#616161" transform="translate(182,139)"/>
<path d="M0 0 C25.74783134 -0.0723496 51.48537963 0.10554586 77.23065186 0.46356201 C81.74488874 0.52576627 86.2591648 0.58499361 90.7734375 0.64453125 C99.51566402 0.76023926 108.25784477 0.87902554 117 1 C117 1.33 117 1.66 117 2 C115.02 2 113.04 2 111 2 C110.67 2.99 110.34 3.98 110 5 C110 4.01 110 3.02 110 2 C109.00552856 2.23879883 109.00552856 2.23879883 107.9909668 2.48242188 C104.37152766 3.10875531 100.80673015 3.21138771 97.14453125 3.28125 C96.03026009 3.30886414 96.03026009 3.30886414 94.89347839 3.33703613 C91.72998823 3.41539398 88.56630278 3.48365781 85.40258789 3.55224609 C83.08729365 3.60391301 80.77218432 3.66115278 78.45703125 3.71875 C77.7393306 3.73232544 77.02162994 3.74590088 76.28218079 3.7598877 C72.51527628 3.80080549 72.51527628 3.80080549 69 5 C69 4.34 69 3.68 69 3 C63.57368188 3.09394569 58.14778844 3.20012916 52.72192383 3.31738281 C50.87823954 3.35553358 49.03448434 3.3904101 47.19067383 3.421875 C44.53180699 3.46782895 41.87342247 3.5257716 39.21484375 3.5859375 C38.39789536 3.59748871 37.58094696 3.60903992 36.73924255 3.62094116 C31.8336778 3.74586039 27.72400846 4.55124178 23 6 C20.58813477 6.21118164 20.58813477 6.21118164 18.44140625 6.16015625 C17.64283203 6.14919922 16.84425781 6.13824219 16.02148438 6.12695312 C14.80428711 6.09504883 14.80428711 6.09504883 13.5625 6.0625 C7.58186611 5.9336276 1.92484261 6.12249748 -4 7 C-4 6.34 -4 5.68 -4 5 C-3.34 5 -2.68 5 -2 5 C-1.34 3.35 -0.68 1.7 0 0 Z " fill="#111111" transform="translate(156,136)"/>
<path d="M0 0 C1.74627478 2.61941217 2.38722388 4.03824877 3 7 C3.66 7 4.32 7 5 7 C5.66 8.98 6.32 10.96 7 13 C6.01 13 5.02 13 4 13 C3.67 12.34 3.34 11.68 3 11 C2.66430703 12.62451419 2.3315204 14.24962917 2 15.875 C1.814375 16.77992188 1.62875 17.68484375 1.4375 18.6171875 C0.93980405 20.92407903 0.93980405 20.92407903 1 23 C1.66 23 2.32 23 3 23 C3 24.32 3 25.64 3 27 C2.34 27.33 1.68 27.66 1 28 C-0.61037909 33.18899929 -1.22541675 37.58999807 -1 43 C0.485 42.505 0.485 42.505 2 42 C2 42.66 2 43.32 2 44 C1.34 44 0.68 44 0 44 C-1.08318169 49.3212615 -2.152874 54.63486869 -3 60 C-2.01 60.33 -1.02 60.66 0 61 C0.33 60.34 0.66 59.68 1 59 C1.36923077 64.53846154 1.36923077 64.53846154 -0.5 66.875 C-0.995 67.24625 -1.49 67.6175 -2 68 C-2 67.34 -2 66.68 -2 66 C-3.32 66 -4.64 66 -6 66 C-6.33 65.01 -6.66 64.02 -7 63 C-7.99 63.495 -7.99 63.495 -9 64 C-8.51994396 56.28120422 -7.72372095 48.71336198 -6.46875 41.08203125 C-6.0333862 38.21951424 -5.73930682 35.38450187 -5.5 32.5 C-5.1865857 28.96126758 -4.33617321 26.29589392 -3 23 C-2.92353835 20.6679198 -2.90856701 18.33154122 -3 16 C-2.34 16 -1.68 16 -1 16 C-1.01160156 15.01257813 -1.02320313 14.02515625 -1.03515625 13.0078125 C-1.04417969 11.72648437 -1.05320313 10.44515625 -1.0625 9.125 C-1.07410156 7.84882813 -1.08570313 6.57265625 -1.09765625 5.2578125 C-1 2 -1 2 0 0 Z " fill="#161616" transform="translate(164,348)"/>
<path d="M0 0 C0.66 0.66 1.32 1.32 2 2 C4.06874034 2.6425235 4.06874034 2.6425235 6 3 C6.33 2.01 6.66 1.02 7 0 C7.66 0.33 8.32 0.66 9 1 C8.67 1.66 8.34 2.32 8 3 C13.445 3.495 13.445 3.495 19 4 C19 4.99 19 5.98 19 7 C19.556875 6.835 20.11375 6.67 20.6875 6.5 C23.20536669 5.95559639 25.43101763 5.86113609 28 6 C28.495 6.495 28.495 6.495 29 7 C30.68183948 7.23287008 32.3712416 7.41264166 34.0625 7.5625 C34.98160156 7.64628906 35.90070313 7.73007813 36.84765625 7.81640625 C37.91306641 7.90728516 37.91306641 7.90728516 39 8 C39 8.66 39 9.32 39 10 C38.01 10.66 37.02 11.32 36 12 C36 12.66 36 13.32 36 14 C35.05125 14.144375 34.1025 14.28875 33.125 14.4375 C30.1065506 14.82935399 30.1065506 14.82935399 28 16 C28 14.35 28 12.7 28 11 C27.67 11.99 27.34 12.98 27 14 C23.31245243 13.50168276 21.39509338 12.89932357 19 10 C19 10.66 19 11.32 19 12 C17.35 12 15.7 12 14 12 C13.34 10.68 12.68 9.36 12 8 C10.68 8 9.36 8 8 8 C7.01 8 6.02 8 5 8 C2.39037564 8.27096739 -0.21456415 8.57301405 -2.8203125 8.87890625 C-3.53960937 8.91886719 -4.25890625 8.95882812 -5 9 C-5.33 8.67 -5.66 8.34 -6 8 C-8.51859228 7.4380482 -11.02873303 6.92023227 -13.5625 6.4375 C-14.27341797 6.29892578 -14.98433594 6.16035156 -15.71679688 6.01757812 C-17.47719932 5.67494946 -19.23851797 5.33703447 -21 5 C-21.33 4.01 -21.66 3.02 -22 2 C-20.35 2 -18.7 2 -17 2 C-16.67 2.66 -16.34 3.32 -16 4 C-16 3.01 -16 2.02 -16 1 C-11.05 1.33 -6.1 1.66 -1 2 C-0.67 1.34 -0.34 0.68 0 0 Z " fill="#0E0E0E" transform="translate(167,74)"/>
<path d="M0 0 C0.99 0 1.98 0 3 0 C3 0.99 3 1.98 3 3 C4.98 3.33 6.96 3.66 9 4 C9 4.66 9 5.32 9 6 C9.99 6.66 10.98 7.32 12 8 C10.34385343 8.38218767 8.67542976 8.71395102 7 9 C6.505 8.505 6.505 8.505 6 8 C3.94603274 8.40929986 3.94603274 8.40929986 2 9 C2.495 10.485 2.495 10.485 3 12 C-1.049183 14.91035028 -5.00313396 16.3709014 -10 16 C-11.67987227 14.68334336 -13.34466005 13.34736973 -15 12 C-18.62985477 11.056444 -22.28470389 10.49450526 -26 10 C-26 10.66 -26 11.32 -26 12 C-28.31 11.67 -30.62 11.34 -33 11 C-31.61688137 8.23376274 -30.099163 8.04597614 -27.25 6.9375 C-25.95835938 6.42509766 -25.95835938 6.42509766 -24.640625 5.90234375 C-19.4126261 4.115853 -14.8729613 3.94942368 -9.40234375 4.16015625 C-6.7696358 3.98464239 -5.30408921 3.22150259 -3 2 C-2.01 2 -1.02 2 0 2 C0 1.34 0 0.68 0 0 Z " fill="#4B4B4B" transform="translate(134,81)"/>
<path d="M0 0 C0.309375 0.94875 0.61875 1.8975 0.9375 2.875 C1.87394742 5.86080408 1.87394742 5.86080408 3 8 C3.04022391 10.3329866 3.04320247 12.66706666 3 15 C3.66 15 4.32 15 5 15 C5 15.66 5 16.32 5 17 C4.34 17 3.68 17 3 17 C3.01160156 17.58007812 3.02320313 18.16015625 3.03515625 18.7578125 C3.07725367 22.40224608 3.05337913 25.71709061 2.375 29.3125 C1.94502935 32.39395632 2.54077561 33.3551558 4 36 C3 39 3 39 1 41 C-3.62339056 33.39377682 -3.62339056 33.39377682 -4 29 C-3.67 28.34 -3.34 27.68 -3 27 C-3.66 26.67 -4.32 26.34 -5 26 C-4.505 21.545 -4.505 21.545 -4 17 C-4.66 16.67 -5.32 16.34 -6 16 C-6.39460023 13.67624308 -6.72230092 11.3406065 -7 9 C-7.20625 8.29875 -7.4125 7.5975 -7.625 6.875 C-8.13214903 4.33925485 -7.73152249 2.46057566 -7 0 C-4.3333581 -1.33332095 -2.83319697 -0.67102033 0 0 Z " fill="#CBCBCB" transform="translate(171,414)"/>
<path d="M0 0 C0.969375 0.185625 1.93875 0.37125 2.9375 0.5625 C7.38413206 1.21856047 11.58084983 0.65134866 16 0 C16.33 1.65 16.66 3.3 17 5 C16.01 5.33 15.02 5.66 14 6 C14.33 6.99 14.66 7.98 15 9 C13.5625 11.1875 13.5625 11.1875 12 13 C11.45859375 12.84660156 10.9171875 12.69320312 10.359375 12.53515625 C7.65295977 11.92128392 5.0149491 11.66791243 2.25 11.4375 C1.26515625 11.35371094 0.2803125 11.26992187 -0.734375 11.18359375 C-1.48203125 11.12300781 -2.2296875 11.06242188 -3 11 C-2.34 11.66 -1.68 12.32 -1 13 C-4.39192363 12.40716379 -6.2107757 11.23256811 -8.75 8.9375 C-9.36359375 8.38964844 -9.9771875 7.84179688 -10.609375 7.27734375 C-11.06828125 6.85582031 -11.5271875 6.43429688 -12 6 C-8.3558226 3.5705484 -6.28758728 3.83820425 -2 4 C-2 3.34 -2 2.68 -2 2 C-1.34 2 -0.68 2 0 2 C0 1.34 0 0.68 0 0 Z " fill="#646464" transform="translate(132,122)"/>
<path d="M0 0 C3 1 3 1 7 3 C6.67 5.97 6.34 8.94 6 12 C5.34 12 4.68 12 4 12 C4.020625 13.11375 4.04125 14.2275 4.0625 15.375 C4 19 4 19 3 21 C3.66 21.33 4.32 21.66 5 22 C4.34 22 3.68 22 3 22 C3.02320313 22.58265625 3.04640625 23.1653125 3.0703125 23.765625 C3.22331029 30.71609604 2.2530825 37.1797876 1 44 C0.64231625 46.33084027 0.31862094 48.66344644 0 51 C-0.66 50.67 -1.32 50.34 -2 50 C-2 34.49 -2 18.98 -2 3 C-1.34 3 -0.68 3 0 3 C0 2.01 0 1.02 0 0 Z " fill="#A7A7A7" transform="translate(155,364)"/>
<path d="M0 0 C0.89203125 0.11085938 1.7840625 0.22171875 2.703125 0.3359375 C3.37859375 0.43132812 4.0540625 0.52671875 4.75 0.625 C4.75 1.285 4.75 1.945 4.75 2.625 C5.89662109 2.60759766 5.89662109 2.60759766 7.06640625 2.58984375 C15.68163293 2.51727265 24.16587725 2.96011636 32.75 3.625 C32.75 4.945 32.75 6.265 32.75 7.625 C32.07453125 7.61339844 31.3990625 7.60179688 30.703125 7.58984375 C29.81109375 7.58082031 28.9190625 7.57179688 28 7.5625 C27.11828125 7.55089844 26.2365625 7.53929688 25.328125 7.52734375 C22.78189719 7.52142179 22.78189719 7.52142179 20.546875 8.25390625 C19.95390625 8.37636719 19.3609375 8.49882813 18.75 8.625 C18.09 7.965 17.43 7.305 16.75 6.625 C14.73528502 6.84885722 12.71854744 7.07918316 10.72265625 7.43359375 C8.75 7.625 8.75 7.625 5.75 6.625 C3.69215958 6.72146233 3.69215958 6.72146233 1.5 7.0625 C-2.44588576 7.56936988 -6.27010387 7.625 -10.25 7.625 C-11.58542939 7.94983418 -12.91961551 8.2800855 -14.25 8.625 C-14.91 8.295 -15.57 7.965 -16.25 7.625 C-15.26 7.295 -14.27 6.965 -13.25 6.625 C-12.92 4.645 -12.59 2.665 -12.25 0.625 C-11.26 0.955 -10.27 1.285 -9.25 1.625 C-8.63640625 1.30789062 -8.0228125 0.99078125 -7.390625 0.6640625 C-4.65881844 -0.66196039 -2.98397883 -0.39262879 0 0 Z " fill="#0E0E0E" transform="translate(194.25,100.375)"/>
<path d="M0 0 C0.33 0.66 0.66 1.32 1 2 C-0.32 1.67 -1.64 1.34 -3 1 C-3 1.66 -3 2.32 -3 3 C-2.34 3.33 -1.68 3.66 -1 4 C-1.93972656 3.98259766 -1.93972656 3.98259766 -2.8984375 3.96484375 C-4.12433594 3.95130859 -4.12433594 3.95130859 -5.375 3.9375 C-6.59316406 3.92009766 -6.59316406 3.92009766 -7.8359375 3.90234375 C-10.04937142 3.85533666 -10.04937142 3.85533666 -12 5 C-13.88484944 4.75378093 -15.76022087 4.43111913 -17.625 4.0625 C-18.62789062 3.86785156 -19.63078125 3.67320313 -20.6640625 3.47265625 C-21.82035156 3.23869141 -21.82035156 3.23869141 -23 3 C-23 3.66 -23 4.32 -23 5 C-25.31 4.67 -27.62 4.34 -30 4 C-28.61688137 1.23376274 -27.099163 1.04597614 -24.25 -0.0625 C-22.95835938 -0.57490234 -22.95835938 -0.57490234 -21.640625 -1.09765625 C-14.04251132 -3.69405308 -6.96287291 -4.41548038 0 0 Z " fill="#585858" transform="translate(131,88)"/>
<path d="M0 0 C-0.020625 1.134375 -0.04125 2.26875 -0.0625 3.4375 C-0.06799409 6.54166225 0.12855782 9.54359939 0.5 12.625 C1.60261375 22.04586157 1.60261375 22.04586157 -0.5 25.375 C-0.995 25.91125 -1.49 26.4475 -2 27 C-2 25.68 -2 24.36 -2 23 C-2.61875 22.95875 -3.2375 22.9175 -3.875 22.875 C-4.926875 22.441875 -4.926875 22.441875 -6 22 C-7.25 18.9375 -7.25 18.9375 -8 16 C-7.67 15.67 -7.34 15.34 -7 15 C-6.95907063 12.66702567 -6.95758277 10.33294775 -7 8 C-6.34 8 -5.68 8 -5 8 C-4.87625 6.865625 -4.7525 5.73125 -4.625 4.5625 C-4.41875 3.386875 -4.2125 2.21125 -4 1 C-2 0 -2 0 0 0 Z " fill="#1C1C1C" transform="translate(189,349)"/>
<path d="M0 0 C1.32 0.33 2.64 0.66 4 1 C4.68810404 6.94945338 5.01151202 12.07542961 4 18 C4.94978897 20.15028304 4.94978897 20.15028304 6 22 C5 25 5 25 3 27 C-1.62339056 19.39377682 -1.62339056 19.39377682 -2 15 C-1.67 14.34 -1.34 13.68 -1 13 C-1.66 12.67 -2.32 12.34 -3 12 C-2.14285714 3.42857143 -2.14285714 3.42857143 0 0 Z " fill="#E7E7E7" transform="translate(169,428)"/>
<path d="M0 0 C0.33 0 0.66 0 1 0 C1 12.21 1 24.42 1 37 C0.34 37 -0.32 37 -1 37 C-4.06863753 26.56663241 -4.19496437 15.80969135 -4 5 C-3.01 5.33 -2.02 5.66 -1 6 C-0.67 4.02 -0.34 2.04 0 0 Z " fill="#D5D5D5" transform="translate(227,381)"/>
<path d="M0 0 C0.495 0.99 0.495 0.99 1 2 C2.65 1.67 4.3 1.34 6 1 C4.99682617 3.46948242 4.99682617 3.46948242 3 6 C0.14715721 6.45571003 -2.10516971 6.58612807 -4.94921875 6.48828125 C-5.72183548 6.48120651 -6.49445221 6.47413177 -7.29048157 6.46684265 C-9.75714142 6.43886255 -12.22152704 6.37612407 -14.6875 6.3125 C-16.35999324 6.2874215 -18.03252209 6.26460754 -19.70507812 6.24414062 C-23.80426109 6.18902491 -27.90174507 6.10273296 -32 6 C-27.92321386 1.92321386 -21.90462669 1.87742722 -16.40625 1.8046875 C-14.43740425 1.81781314 -12.46860304 1.84141491 -10.5 1.875 C-9.48679688 1.88402344 -8.47359375 1.89304688 -7.4296875 1.90234375 C-4.95287199 1.92570993 -2.47656621 1.95846832 0 2 C0 1.34 0 0.68 0 0 Z " fill="#636363" transform="translate(182,139)"/>
<path d="M0 0 C3.3 0 6.6 0 10 0 C9.67 0.99 9.34 1.98 9 3 C9.969375 2.814375 10.93875 2.62875 11.9375 2.4375 C16.38413206 1.78143953 20.58084983 2.34865134 25 3 C24.34 3.33 23.68 3.66 23 4 C23 4.66 23 5.32 23 6 C21.948125 5.814375 20.89625 5.62875 19.8125 5.4375 C16.31453229 5.03609387 14.34813773 5.24666901 11 6 C9.906875 5.95875 8.81375 5.9175 7.6875 5.875 C4.3596452 5.98780864 3.02584625 6.28797312 0.125 7.5625 C-4.40961042 9.4652581 -8.26239046 8.91023517 -13 8 C-13 7.34 -13 6.68 -13 6 C-5.08 5.505 -5.08 5.505 3 5 C3 4.34 3 3.68 3 3 C1.68 3 0.36 3 -1 3 C-0.67 2.01 -0.34 1.02 0 0 Z " fill="#535353" transform="translate(143,110)"/>
<path d="M0 0 C0.33 0 0.66 0 1 0 C1.33 1.65 1.66 3.3 2 5 C2.99 4.67 3.98 4.34 5 4 C6.9775967 11.41598761 6.4980457 18.81811862 4 26 C3.01 25.67 2.02 25.34 1 25 C0.90912109 23.948125 0.90912109 23.948125 0.81640625 22.875 C0.42653492 18.46045699 0.03043738 14.07126948 -0.625 9.6875 C-0.98305305 6.16664499 -0.77278084 3.43458151 0 0 Z " fill="#747474" transform="translate(191,391)"/>
<path d="M0 0 C4.62 0.66 9.24 1.32 14 2 C14 2.66 14 3.32 14 4 C13.01 4.66 12.02 5.32 11 6 C11 6.66 11 7.32 11 8 C9.576875 8.2165625 9.576875 8.2165625 8.125 8.4375 C5.1065506 8.82935399 5.1065506 8.82935399 3 10 C3 8.35 3 6.7 3 5 C2.67 5.99 2.34 6.98 2 8 C-1.68754757 7.50168276 -3.60490662 6.89932357 -6 4 C-6 4.66 -6 5.32 -6 6 C-7.65 6 -9.3 6 -11 6 C-10.67 5.01 -10.34 4.02 -10 3 C-9.34 3.33 -8.68 3.66 -8 4 C-7.67 3.67 -7.34 3.34 -7 3 C-5.515 2.7834375 -5.515 2.7834375 -4 2.5625 C-3.01 2.376875 -2.02 2.19125 -1 2 C-0.67 1.34 -0.34 0.68 0 0 Z " fill="#262626" transform="translate(192,80)"/>
<path d="M0 0 C3 1 3 1 7 3 C6.67 5.97 6.34 8.94 6 12 C5.34 12 4.68 12 4 12 C4 13.98 4 15.96 4 18 C1.525 17.01 1.525 17.01 -1 16 C-0.979375 14.783125 -0.95875 13.56625 -0.9375 12.3125 C-0.93175884 9.08022678 -1.21233685 6.15065259 -2 3 C-1.34 3 -0.68 3 0 3 C0 2.01 0 1.02 0 0 Z " fill="#C5C5C5" transform="translate(155,364)"/>
<path d="M0 0 C2.6109862 0.45785066 4.6667246 0.34782337 7.28515625 -0.00390625 C8.07535156 -0.10574219 8.86554688 -0.20757812 9.6796875 -0.3125 C10.27136719 -0.39628906 10.86304688 -0.48007813 11.47265625 -0.56640625 C11.14265625 0.42359375 10.81265625 1.41359375 10.47265625 2.43359375 C9.81265625 2.43359375 9.15265625 2.43359375 8.47265625 2.43359375 C7.81265625 3.09359375 7.15265625 3.75359375 6.47265625 4.43359375 C3.86773964 4.25212765 1.41584002 3.97082989 -1.15234375 3.55859375 C-1.85875 3.45417969 -2.56515625 3.34976563 -3.29296875 3.2421875 C-5.03926789 2.98260249 -6.78352974 2.70937942 -8.52734375 2.43359375 C-8.52734375 3.42359375 -8.52734375 4.41359375 -8.52734375 5.43359375 C-10.52734375 4.43359375 -10.52734375 4.43359375 -11.52734375 2.43359375 C-14.10686249 1.74265479 -14.10686249 1.74265479 -17.08984375 1.30859375 C-18.10175781 1.14101562 -19.11367187 0.9734375 -20.15625 0.80078125 C-20.93871094 0.67960937 -21.72117188 0.5584375 -22.52734375 0.43359375 C-22.52734375 0.10359375 -22.52734375 -0.22640625 -22.52734375 -0.56640625 C-14.87649194 -1.69522045 -7.58394273 -1.69964713 0 0 Z " fill="#565656" transform="translate(159.52734375,72.56640625)"/>
<path d="M0 0 C0.66 0.33 1.32 0.66 2 1 C1.67 1.66 1.34 2.32 1 3 C4.63 3.33 8.26 3.66 12 4 C12 4.99 12 5.98 12 7 C13.98 6.67 15.96 6.34 18 6 C18.99 7.485 18.99 7.485 20 9 C17.03 9 14.06 9 11 9 C11 9.66 11 10.32 11 11 C10.278125 10.690625 9.55625 10.38125 8.8125 10.0625 C6.19692691 9.07439461 3.74881018 8.4712246 1 8 C1 7.01 1 6.02 1 5 C-0.65 5 -2.3 5 -4 5 C-4 4.34 -4 3.68 -4 3 C-3.01 3 -2.02 3 -1 3 C-0.67 2.01 -0.34 1.02 0 0 Z " fill="#252525" transform="translate(174,74)"/>
<path d="M0 0 C0.33 0 0.66 0 1 0 C1.66 1.98 2.32 3.96 3 6 C3.66 6 4.32 6 5 6 C5.33 7.32 5.66 8.64 6 10 C5.01 10.33 4.02 10.66 3 11 C2.67 14.3 2.34 17.6 2 21 C2.66 21 3.32 21 4 21 C4 22.32 4 23.64 4 25 C3.01 25 2.02 25 1 25 C0.67 26.32 0.34 27.64 0 29 C-0.66 28.67 -1.32 28.34 -2 28 C-1.34 18.76 -0.68 9.52 0 0 Z " fill="#363636" transform="translate(219,350)"/>
<path d="M0 0 C1.60294922 0.01353516 1.60294922 0.01353516 3.23828125 0.02734375 C4.04652344 0.03894531 4.85476562 0.05054688 5.6875 0.0625 C5.6875 0.7225 5.6875 1.3825 5.6875 2.0625 C18.5575 2.5575 18.5575 2.5575 31.6875 3.0625 C31.6875 3.3925 31.6875 3.7225 31.6875 4.0625 C26.20654631 4.08723355 20.72562517 4.10537596 15.24462891 4.11743164 C13.38036534 4.12245792 11.5161057 4.12927992 9.65185547 4.13793945 C6.97101876 4.15007963 4.2902342 4.15574539 1.609375 4.16015625 C0.77694275 4.16531754 -0.0554895 4.17047882 -0.91314697 4.17579651 C-1.69365417 4.17587204 -2.47416138 4.17594757 -3.27832031 4.17602539 C-3.96226868 4.178246 -4.64621704 4.18046661 -5.35089111 4.18275452 C-7.44071596 4.05463985 -9.30097744 3.62975751 -11.3125 3.0625 C-11.3125 2.4025 -11.3125 1.7425 -11.3125 1.0625 C-7.47525828 0.15836327 -3.93747726 -0.04326898 0 0 Z " fill="#434343" transform="translate(146.3125,141.9375)"/>
<path d="M0 0 C0.99 0 1.98 0 3 0 C2.38461538 6.52307692 2.38461538 6.52307692 0.4375 8.9375 C-0.036875 9.288125 -0.51125 9.63875 -1 10 C-0.34 10.66 0.32 11.32 1 12 C0.67 12.99 0.34 13.98 0 15 C-5.53846154 15.36923077 -5.53846154 15.36923077 -7.875 13.5 C-8.24625 13.005 -8.6175 12.51 -9 12 C-8.67 11.01 -8.34 10.02 -8 9 C-7.34 9 -6.68 9 -6 9 C-5.67 8.34 -5.34 7.68 -5 7 C-4.34 7 -3.68 7 -3 7 C-2.67 6.34 -2.34 5.68 -2 5 C-1.34 5 -0.68 5 0 5 C0 3.35 0 1.7 0 0 Z " fill="#5A5A5A" transform="translate(152,86)"/>
<path d="M0 0 C0.33 0 0.66 0 1 0 C3.25809954 8.0098625 4.57258771 15.6875679 5 24 C3.68 23.67 2.36 23.34 1 23 C0.34 24.32 -0.32 25.64 -1 27 C-1.02705729 25.22925083 -1.04642195 23.45838289 -1.0625 21.6875 C-1.07410156 20.70136719 -1.08570313 19.71523438 -1.09765625 18.69921875 C-1 16 -1 16 0 13 C0.66 13 1.32 13 2 13 C2 12.34 2 11.68 2 11 C1.34 11 0.68 11 0 11 C-0.19491452 9.54263913 -0.38069358 8.08405407 -0.5625 6.625 C-0.66691406 5.81289063 -0.77132812 5.00078125 -0.87890625 4.1640625 C-1 2 -1 2 0 0 Z " fill="#1A1A1A" transform="translate(174,418)"/>
<path d="M0 0 C0.33 0 0.66 0 1 0 C1.19534474 2.41626418 1.38153404 4.83265229 1.5625 7.25 C1.61857422 7.93191406 1.67464844 8.61382812 1.73242188 9.31640625 C1.98311044 12.75919588 2.1067097 15.71061283 1 19 C0.2834477 22.18467688 0 24.68745922 0 28 C-0.66 28 -1.32 28 -2 28 C-2.50512244 26.39743892 -3.00391627 24.79288208 -3.5 23.1875 C-3.7784375 22.29417969 -4.056875 21.40085937 -4.34375 20.48046875 C-5 18 -5 18 -5 15 C-3.68 14.67 -2.36 14.34 -1 14 C-0.67 9.38 -0.34 4.76 0 0 Z " fill="#C5C5C5" transform="translate(182,416)"/>
<path d="M0 0 C1.32 1.32 2.64 2.64 4 4 C4.33 3.34 4.66 2.68 5 2 C7 5 7 5 6.625 7.6875 C6.41875 8.450625 6.2125 9.21375 6 10 C0.73628638 10.50130606 -1.9090934 9.31168629 -6 6 C-6 5.34 -6 4.68 -6 4 C-4.02 3.34 -2.04 2.68 0 2 C0 1.34 0 0.68 0 0 Z " fill="#5C5C5C" transform="translate(174,79)"/>
<path d="M0 0 C3 1.5 3 1.5 6 3 C6 3.99 6 4.98 6 6 C5.01 6.33 4.02 6.66 3 7 C3 8.65 3 10.3 3 12 C3.66 12 4.32 12 5 12 C5 13.65 5 15.3 5 17 C3.02 17.66 1.04 18.32 -1 19 C-0.67 17.35 -0.34 15.7 0 14 C0.66 14 1.32 14 2 14 C2 12.68 2 11.36 2 10 C1.34 10 0.68 10 0 10 C-1.231394 6.30581799 -0.64432764 3.7943739 0 0 Z " fill="#CBCBCB" transform="translate(165,361)"/>
<path d="M0 0 C1.32 0.33 2.64 0.66 4 1 C4 1.66 4 2.32 4 3 C5.32 2.67 6.64 2.34 8 2 C8 2.99 8 3.98 8 5 C0.15652768 8.02460697 0.15652768 8.02460697 -3.9375 7.9375 C-6 7 -6 7 -7.3125 4.9375 C-7.539375 4.298125 -7.76625 3.65875 -8 3 C-5.29120665 1.64560332 -2.99066732 1.93498549 0 2 C0 1.34 0 0.68 0 0 Z " fill="#3B3B3B" transform="translate(128,89)"/>
<path d="M0 0 C1.65 0.33 3.3 0.66 5 1 C6.42500059 4.99000166 7.40075776 8.80530429 8 13 C7.34 13 6.68 13 6 13 C4.66666667 11.66666667 3.33333333 10.33333333 2 9 C1.01 8.67 0.02 8.34 -1 8 C-0.67 5.36 -0.34 2.72 0 0 Z " fill="#C3C3C3" transform="translate(166,413)"/>
<path d="M0 0 C1.76923828 0.04060547 1.76923828 0.04060547 3.57421875 0.08203125 C4.47785156 0.11683594 5.38148438 0.15164062 6.3125 0.1875 C5.6525 1.5075 4.9925 2.8275 4.3125 4.1875 C3.425625 4.166875 2.53875 4.14625 1.625 4.125 C-1.32070921 4.18057942 -3.82406132 4.56837812 -6.6875 5.1875 C-7.6775 5.1875 -8.6675 5.1875 -9.6875 5.1875 C-9.6875 3.1875 -9.6875 3.1875 -8.60546875 1.57421875 C-5.76375958 -0.48037749 -3.45434873 -0.10260442 0 0 Z " fill="#0B0B0B" transform="translate(144.6875,118.8125)"/>
<path d="M0 0 C0 0.66 0 1.32 0 2 C1.32 2 2.64 2 4 2 C4 2.66 4 3.32 4 4 C-1.36095333 5.12862175 -6.55306686 5.09688221 -12 5 C-11.67 3.68 -11.34 2.36 -11 1 C-7.27569643 0.30710631 -3.78916254 -0.11144596 0 0 Z " fill="#1D1D1D" transform="translate(142,111)"/>
<path d="M0 0 C-0.66 1.98 -1.32 3.96 -2 6 C-4.64 6 -7.28 6 -10 6 C-10 5.34 -10 4.68 -10 4 C-10.66 3.67 -11.32 3.34 -12 3 C-12 2.34 -12 1.68 -12 1 C-7.93631321 0.22596442 -4.13574827 -0.0984702 0 0 Z " fill="#656565" transform="translate(136,125)"/>
<path d="M0 0 C0.125 2.875 0.125 2.875 0 6 C-0.66 6.66 -1.32 7.32 -2 8 C-3.79553415 10.69330122 -4.42696461 12.1460601 -5.125 15.1875 C-5.41375 16.445625 -5.7025 17.70375 -6 19 C-6.66 18.67 -7.32 18.34 -8 18 C-7.73958333 15.98177083 -7.47916667 13.96354167 -7.21875 11.9453125 C-6.9627515 9.99501656 -6.9627515 9.99501656 -7 8 C-6.34 8 -5.68 8 -5 8 C-4.87625 6.865625 -4.7525 5.73125 -4.625 4.5625 C-4.41875 3.386875 -4.2125 2.21125 -4 1 C-2 0 -2 0 0 0 Z " fill="#343434" transform="translate(189,349)"/>
<path d="M0 0 C5.61 0 11.22 0 17 0 C17 0.66 17 1.32 17 2 C15.35 1.67 13.7 1.34 12 1 C12 1.66 12 2.32 12 3 C9.69 3.66 7.38 4.32 5 5 C4.67 4.34 4.34 3.68 4 3 C3.01 3.33 2.02 3.66 1 4 C0.67 2.68 0.34 1.36 0 0 Z " fill="#4B4B4B" transform="translate(189,139)"/>
<path d="M0 0 C0.33 0.66 0.66 1.32 1 2 C1.99 1.67 2.98 1.34 4 1 C4.96070434 3.88211302 5.10581883 5.69850044 5.0625 8.6875 C5.05347656 9.49574219 5.04445312 10.30398438 5.03515625 11.13671875 C5.02355469 11.75160156 5.01195312 12.36648438 5 13 C2.525 12.01 2.525 12.01 0 11 C0 7.37 0 3.74 0 0 Z " fill="#F2F2F2" transform="translate(154,369)"/>
<path d="M0 0 C0.33 0.66 0.66 1.32 1 2 C1.99 2.33 2.98 2.66 4 3 C3.67 3.66 3.34 4.32 3 5 C4.11375 4.835 5.2275 4.67 6.375 4.5 C10 4 10 4 12 4 C11.67 4.99 11.34 5.98 11 7 C9.35 7 7.7 7 6 7 C6.66 7.66 7.32 8.32 8 9 C4.60807637 8.40716379 2.7892243 7.23256811 0.25 4.9375 C-0.36359375 4.38964844 -0.9771875 3.84179688 -1.609375 3.27734375 C-2.06828125 2.85582031 -2.5271875 2.43429688 -3 2 C-2.01 1.34 -1.02 0.68 0 0 Z " fill="#4C4C4C" transform="translate(123,126)"/>
<path d="M0 0 C0.33 0.66 0.66 1.32 1 2 C-1.31 2.33 -3.62 2.66 -6 3 C-5.67 3.33 -5.34 3.66 -5 4 C-6.32 4.33 -7.64 4.66 -9 5 C-9 5.66 -9 6.32 -9 7 C-11.31 6.67 -13.62 6.34 -16 6 C-14.61769577 3.23539154 -13.08867771 3.00879139 -10.25 1.875 C-9.38890625 1.52179688 -8.5278125 1.16859375 -7.640625 0.8046875 C-4.94136502 -0.01786806 -2.80298055 -0.15123996 0 0 Z " fill="#474747" transform="translate(117,86)"/>
<path d="M0 0 C1.98 0 3.96 0 6 0 C6 1.65 6 3.3 6 5 C-2.26086957 5.15886288 -2.26086957 5.15886288 -5 4 C-5.33 3.01 -5.66 2.02 -6 1 C-4.35 1 -2.7 1 -1 1 C-0.67 1.66 -0.34 2.32 0 3 C0 2.01 0 1.02 0 0 Z " fill="#080808" transform="translate(151,75)"/>
<path d="M0 0 C0.33 0.66 0.66 1.32 1 2 C1.66 2 2.32 2 3 2 C3.12375 3.134375 3.2475 4.26875 3.375 5.4375 C3.684375 7.2009375 3.684375 7.2009375 4 9 C4.66 9.33 5.32 9.66 6 10 C3.525 11.485 3.525 11.485 1 13 C1 12.01 1 11.02 1 10 C0.01 9.34 -0.98 8.68 -2 8 C-2.1875 5.375 -2.1875 5.375 -2 3 C-1.34 3 -0.68 3 0 3 C0 2.01 0 1.02 0 0 Z " fill="#5A5A5A" transform="translate(214,418)"/>
<path d="M0 0 C1.74216797 0.15275391 1.74216797 0.15275391 3.51953125 0.30859375 C4.39996094 0.39238281 5.28039062 0.47617188 6.1875 0.5625 C5.1975 1.0575 5.1975 1.0575 4.1875 1.5625 C4.1875 2.2225 4.1875 2.8825 4.1875 3.5625 C3.135625 3.376875 2.08375 3.19125 1 3 C-2.46579196 2.60228617 -4.48823741 2.86265524 -7.8125 3.5625 C-10.625 3.125 -10.625 3.125 -12.8125 2.5625 C-12.4825 1.9025 -12.1525 1.2425 -11.8125 0.5625 C-7.79324976 -0.66458371 -4.14784891 -0.37707717 0 0 Z " fill="#323232" transform="translate(161.8125,112.4375)"/>
<path d="M0 0 C1.74627478 2.61941217 2.38722388 4.03824877 3 7 C3.66 7 4.32 7 5 7 C5.66 8.98 6.32 10.96 7 13 C6.01 13 5.02 13 4 13 C3.34 12.01 2.68 11.02 2 10 C1.01 10.33 0.02 10.66 -1 11 C-1.0270043 9.54176788 -1.04639787 8.08339325 -1.0625 6.625 C-1.07410156 5.81289063 -1.08570313 5.00078125 -1.09765625 4.1640625 C-1 2 -1 2 0 0 Z " fill="#272727" transform="translate(164,348)"/>
<path d="M0 0 C1.32 0.66 2.64 1.32 4 2 C3.67 2.66 3.34 3.32 3 4 C3.99 4.33 4.98 4.66 6 5 C2.84493858 5.93619813 0.03413498 6.1057123 -3.25 6.0625 C-4.14203125 6.05347656 -5.0340625 6.04445313 -5.953125 6.03515625 C-6.62859375 6.02355469 -7.3040625 6.01195313 -8 6 C-7.01 5.34 -6.02 4.68 -5 4 C-3.32576317 2.67618483 -1.65788785 1.34423339 0 0 Z " fill="#676767" transform="translate(140,94)"/>
<path d="M0 0 C0 0.66 0 1.32 0 2 C3.465 1.505 3.465 1.505 7 1 C7.66 1.99 8.32 2.98 9 4 C6.03 4 3.06 4 0 4 C0 4.66 0 5.32 0 6 C-4.875 4.25 -4.875 4.25 -6 2 C-3 0 -3 0 0 0 Z " fill="#080808" transform="translate(185,79)"/>
<path d="M0 0 C2.55694972 3.83542457 2.04045639 5.65902533 1.625 10.1875 C1.51414063 11.45980469 1.40328125 12.73210937 1.2890625 14.04296875 C1.19367188 15.01878906 1.09828125 15.99460937 1 17 C0.34 16.67 -0.32 16.34 -1 16 C-1.02685095 13.52076199 -1.04676547 11.0418116 -1.0625 8.5625 C-1.07506836 7.50192383 -1.07506836 7.50192383 -1.08789062 6.41992188 C-1.09653588 4.61306441 -1.05220011 2.80612397 -1 1 C-0.67 0.67 -0.34 0.34 0 0 Z " fill="#B2B2B2" transform="translate(154,398)"/>
<path d="M0 0 C0.33 0 0.66 0 1 0 C1.33 1.65 1.66 3.3 2 5 C2.99 4.67 3.98 4.34 5 4 C5.33 4.99 5.66 5.98 6 7 C5.01 7 4.02 7 3 7 C3.309375 8.175625 3.309375 8.175625 3.625 9.375 C3.74875 10.24125 3.8725 11.1075 4 12 C3.34 12.66 2.68 13.32 2 14 C1.34 13.67 0.68 13.34 0 13 C-0.99847037 8.37072828 -1.013244 4.61588935 0 0 Z " fill="#C7C7C7" transform="translate(191,391)"/>
<path d="M0 0 C2.00841268 0.01421885 4.01537247 0.13420475 6.01953125 0.265625 C5.35953125 1.585625 4.69953125 2.905625 4.01953125 4.265625 C4.67953125 4.595625 5.33953125 4.925625 6.01953125 5.265625 C4.69953125 5.595625 3.37953125 5.925625 2.01953125 6.265625 C1.68953125 5.275625 1.35953125 4.285625 1.01953125 3.265625 C0.68953125 3.925625 0.35953125 4.585625 0.01953125 5.265625 C-1.63046875 4.935625 -3.28046875 4.605625 -4.98046875 4.265625 C-3.72152968 1.74774686 -2.88459378 0.38688832 0 0 Z " fill="#626262" transform="translate(172.98046875,71.734375)"/>
<path d="M0 0 C0 0.33 0 0.66 0 1 C2.64 1.33 5.28 1.66 8 2 C8 2.33 8 2.66 8 3 C1.07 3 -5.86 3 -13 3 C-10.85642985 0.85642985 -9.92072889 0.52040399 -7.0625 -0.1875 C-6.37285156 -0.36667969 -5.68320313 -0.54585937 -4.97265625 -0.73046875 C-3 -1 -3 -1 0 0 Z " fill="#6A6A6A" transform="translate(163,142)"/>
<path d="M0 0 C0.99 0.33 1.98 0.66 3 1 C2.67 1.99 2.34 2.98 2 4 C2.99 4 3.98 4 5 4 C6.0625 5.8125 6.0625 5.8125 7 8 C6 11 6 11 4 13 C-0.61043285 5.41509434 -0.61043285 5.41509434 -1 1 C-0.67 0.67 -0.34 0.34 0 0 Z " fill="#A5A5A5" transform="translate(168,442)"/>
<path d="M0 0 C0 0.66 0 1.32 0 2 C0.66 2.33 1.32 2.66 2 3 C1.34 3 0.68 3 0 3 C0 3.99 0 4.98 0 6 C-2 5 -2 5 -3 3 C-5.57951874 2.30906104 -5.57951874 2.30906104 -8.5625 1.875 C-9.57441406 1.70742187 -10.58632812 1.53984375 -11.62890625 1.3671875 C-12.41136719 1.24601562 -13.19382813 1.12484375 -14 1 C-14 0.67 -14 0.34 -14 0 C-4.58997722 -1.33257403 -4.58997722 -1.33257403 0 0 Z " fill="#383838" transform="translate(151,72)"/>
<path d="M0 0 C2.475 0.99 2.475 0.99 5 2 C4.67 3.32 4.34 4.64 4 6 C1.36 6.33 -1.28 6.66 -4 7 C-4 6.34 -4 5.68 -4 5 C-3.34 5 -2.68 5 -2 5 C-1.34 3.35 -0.68 1.7 0 0 Z " fill="#1F1F1F" transform="translate(156,136)"/>
<path d="M0 0 C2.64 0 5.28 0 8 0 C8 0.66 8 1.32 8 2 C7.01 2.66 6.02 3.32 5 4 C5 4.66 5 5.32 5 6 C2.69 6 0.38 6 -2 6 C-1.34 5.34 -0.68 4.68 0 4 C-0.33 3.34 -0.66 2.68 -1 2 C-0.67 1.34 -0.34 0.68 0 0 Z " fill="#111111" transform="translate(198,82)"/>
<path d="M0 0 C1.485 0.99 1.485 0.99 3 2 C5.11280345 2.63292383 5.11280345 2.63292383 7 3 C7 3.66 7 4.32 7 5 C7.66 5 8.32 5 9 5 C9 5.66 9 6.32 9 7 C7.35 6.67 5.7 6.34 4 6 C4 6.99 4 7.98 4 9 C3.34 9 2.68 9 2 9 C1.690625 8.21625 1.38125 7.4325 1.0625 6.625 C0.07124962 4.07669872 0.07124962 4.07669872 -1 2 C-0.67 1.34 -0.34 0.68 0 0 Z " fill="#656565" transform="translate(184,72)"/>
<path d="M0 0 C0.33 0 0.66 0 1 0 C1.5590711 1.91166247 2.09666462 3.82961576 2.625 5.75 C2.92664063 6.81734375 3.22828125 7.8846875 3.5390625 8.984375 C4.03345719 12.21888938 3.79570284 13.33874255 2 16 C1.34 16 0.68 16 0 16 C0 15.01 0 14.02 0 13 C0.66 13 1.32 13 2 13 C2 12.34 2 11.68 2 11 C1.34 11 0.68 11 0 11 C-0.19491452 9.54263913 -0.38069358 8.08405407 -0.5625 6.625 C-0.66691406 5.81289063 -0.77132812 5.00078125 -0.87890625 4.1640625 C-1 2 -1 2 0 0 Z " fill="#353535" transform="translate(174,418)"/>
<path d="M0 0 C0.33 0 0.66 0 1 0 C1.36923077 5.53846154 1.36923077 5.53846154 -0.5 7.875 C-1.2425 8.431875 -1.2425 8.431875 -2 9 C-2 8.34 -2 7.68 -2 7 C-3.32 7 -4.64 7 -6 7 C-5.67 5.68 -5.34 4.36 -5 3 C-3.35 2.67 -1.7 2.34 0 2 C0 1.34 0 0.68 0 0 Z " fill="#808080" transform="translate(164,407)"/>
<path d="M0 0 C0.97608217 2.92824652 1.08226668 4.95613276 1 8 C2.98 7.67 4.96 7.34 7 7 C6.67 8.65 6.34 10.3 6 12 C5.01 11.34 4.02 10.68 3 10 C2.01 10.66 1.02 11.32 0 12 C-1.1898306 9.6203388 -1.13349966 8.08514265 -1.125 5.4375 C-1.12886719 4.22900391 -1.12886719 4.22900391 -1.1328125 2.99609375 C-1 1 -1 1 0 0 Z " fill="#B8B8B8" transform="translate(190,373)"/>
<path d="M0 0 C0.66 0 1.32 0 2 0 C2 0.66 2 1.32 2 2 C3.32 2 4.64 2 6 2 C5.67 2.66 5.34 3.32 5 4 C5 4.99 5 5.98 5 7 C3.02 7 1.04 7 -1 7 C-1.04254356 5.00045254 -1.04080783 2.99958364 -1 1 C-0.67 0.67 -0.34 0.34 0 0 Z " fill="#3D3D3D" transform="translate(144,77)"/>
<path d="M0 0 C4.875 1.75 4.875 1.75 6 4 C4.68 3.67 3.36 3.34 2 3 C2 3.66 2 4.32 2 5 C2.66 5.33 3.32 5.66 4 6 C1.69 6 -0.62 6 -3 6 C-3 5.01 -3 4.02 -3 3 C-2.34 3 -1.68 3 -1 3 C-0.67 2.01 -0.34 1.02 0 0 Z " fill="#676767" transform="translate(126,86)"/>
<path d="M0 0 C1.485 0.99 1.485 0.99 3 2 C3.36328125 4.09375 3.36328125 4.09375 3.3125 6.5 C3.30863281 7.2940625 3.30476562 8.088125 3.30078125 8.90625 C3 11 3 11 1 13 C-1.42857143 4.57142857 -1.42857143 4.57142857 0 0 Z " fill="#D9D9D9" transform="translate(154,388)"/>
<path d="M0 0 C3.96 0 7.92 0 12 0 C7.32958611 3.50281042 5.58600962 3.5344992 0 4 C-0.33 3.34 -0.66 2.68 -1 2 C-0.67 1.34 -0.34 0.68 0 0 Z " fill="#262626" transform="translate(177,138)"/>
<path d="M0 0 C3.3 0.66 6.6 1.32 10 2 C9.67 2.66 9.34 3.32 9 4 C8.34 4 7.68 4 7 4 C6.67 4.99 6.34 5.98 6 7 C5.01 6.34 4.02 5.68 3 5 C3.33 4.34 3.66 3.68 4 3 C2.02 3 0.04 3 -2 3 C-1.34 2.67 -0.68 2.34 0 2 C0 1.34 0 0.68 0 0 Z " fill="#565656" transform="translate(132,122)"/>
<path d="M0 0 C1.65 0.33 3.3 0.66 5 1 C5 1.66 5 2.32 5 3 C4.01 3.495 4.01 3.495 3 4 C2.34444881 6.52733235 2.34444881 6.52733235 2 9 C1.01 8.67 0.02 8.34 -1 8 C-0.67 5.36 -0.34 2.72 0 0 Z " fill="#808080" transform="translate(166,413)"/>
<path d="M0 0 C0.99 0.33 1.98 0.66 3 1 C2.67 4.3 2.34 7.6 2 11 C1.01 10.67 0.02 10.34 -1 10 C-1.125 3.375 -1.125 3.375 0 0 Z " fill="#D1D1D1" transform="translate(193,406)"/>
<path d="M0 0 C6.52307692 -0.36923077 6.52307692 -0.36923077 8.9375 1.5 C9.288125 1.995 9.63875 2.49 10 3 C9.01 3 8.02 3 7 3 C7.33 3.99 7.66 4.98 8 6 C7.34 6 6.68 6 6 6 C6 4.35 6 2.7 6 1 C5.67 1.99 5.34 2.98 5 4 C3.35 3.67 1.7 3.34 0 3 C0 2.01 0 1.02 0 0 Z " fill="#404040" transform="translate(189,84)"/>
<path d="M0 0 C1.0625 1.875 1.0625 1.875 2 4 C1.67 4.66 1.34 5.32 1 6 C-3.47540984 7.26229508 -3.47540984 7.26229508 -6 6 C-6 5.34 -6 4.68 -6 4 C-4.02 3.34 -2.04 2.68 0 2 C0 1.34 0 0.68 0 0 Z " fill="#515151" transform="translate(174,79)"/>
<path d="M0 0 C0.66 0.33 1.32 0.66 2 1 C1.34 4.3 0.68 7.6 0 11 C-0.99 10.01 -1.98 9.02 -3 8 C-3 5 -3 5 -2 3 C-1.34 3 -0.68 3 0 3 C0 2.01 0 1.02 0 0 Z " fill="#EEEEEE" transform="translate(172,437)"/>
<path d="M0 0 C1.32 0.99 2.64 1.98 4 3 C3.01 3.33 2.02 3.66 1 4 C1 4.99 1 5.98 1 7 C1.99 7 2.98 7 4 7 C3.34 8.32 2.68 9.64 2 11 C1.34 11 0.68 11 0 11 C-0.19491452 9.54263913 -0.38069358 8.08405407 -0.5625 6.625 C-0.66691406 5.81289063 -0.77132812 5.00078125 -0.87890625 4.1640625 C-1 2 -1 2 0 0 Z " fill="#BEBEBE" transform="translate(163,380)"/>
<path d="M0 0 C3 1.5 3 1.5 6 3 C6 3.99 6 4.98 6 6 C4.68 6 3.36 6 2 6 C1.67 6.66 1.34 7.32 1 8 C0.34 7.67 -0.32 7.34 -1 7 C-0.67 4.69 -0.34 2.38 0 0 Z " fill="#8C8C8C" transform="translate(165,361)"/>
<path d="M0 0 C0.33 0 0.66 0 1 0 C1.66 1.98 2.32 3.96 3 6 C3.66 6 4.32 6 5 6 C5.33 7.32 5.66 8.64 6 10 C2 10 2 10 0 9 C0 6.03 0 3.06 0 0 Z " fill="#4B4B4B" transform="translate(219,350)"/>
<path d="M0 0 C0.33 0 0.66 0 1 0 C1.22577402 5.4185766 0.46670113 9.77487721 -1 15 C-1.66 14.67 -2.32 14.34 -3 14 C-2.73958333 11.98177083 -2.47916667 9.96354167 -2.21875 7.9453125 C-1.9627515 5.99501656 -1.9627515 5.99501656 -2 4 C-1.34 4 -0.68 4 0 4 C0 2.68 0 1.36 0 0 Z " fill="#939393" transform="translate(184,353)"/>
<path d="M0 0 C3.3 0.33 6.6 0.66 10 1 C10 1.66 10 2.32 10 3 C3.375 4.25 3.375 4.25 0 2 C0 1.34 0 0.68 0 0 Z " fill="#2F2F2F" transform="translate(189,100)"/>
<path d="M0 0 C2.97 0 5.94 0 9 0 C8.67 0.99 8.34 1.98 8 3 C5.98177083 2.96744792 3.96354167 2.93489583 1.9453125 2.90234375 C-0.08185404 2.87350758 -0.08185404 2.87350758 -2 4 C-1.34 2.68 -0.68 1.36 0 0 Z " fill="#383838" transform="translate(217,83)"/>
<path d="M0 0 C2.31 0 4.62 0 7 0 C7 0.66 7 1.32 7 2 C7.66 2 8.32 2 9 2 C9 2.66 9 3.32 9 4 C8.34 4 7.68 4 7 4 C6.67 4.66 6.34 5.32 6 6 C4.5 4.625 4.5 4.625 3 3 C3 2.34 3 1.68 3 1 C2.01 0.67 1.02 0.34 0 0 Z " fill="#494949" transform="translate(243,72)"/>
<path d="M0 0 C0.99 0 1.98 0 3 0 C3.33 0.99 3.66 1.98 4 3 C3.34 3 2.68 3 2 3 C2.33 4.65 2.66 6.3 3 8 C2.34 8 1.68 8 1 8 C-0.42944945 5.64561267 -1.08661261 4.51967567 -0.625 1.75 C-0.41875 1.1725 -0.2125 0.595 0 0 Z " fill="#B2B2B2" transform="translate(176,419)"/>
<path d="M0 0 C0.99 0.495 0.99 0.495 2 1 C2.625 4.0625 2.625 4.0625 3 7 C2.34 7 1.68 7 1 7 C1 8.98 1 10.96 1 13 C0.67 13 0.34 13 0 13 C0 8.71 0 4.42 0 0 Z " fill="#363636" transform="translate(201,405)"/>
<path d="M0 0 C0.66 0.33 1.32 0.66 2 1 C2 1.66 2 2.32 2 3 C2.66 3.33 3.32 3.66 4 4 C4 4.66 4 5.32 4 6 C2.68 6.33 1.36 6.66 0 7 C0 6.34 0 5.68 0 5 C-1.32 4.34 -2.64 3.68 -4 3 C-2.68 2.01 -1.36 1.02 0 0 Z " fill="#1E1E1E" transform="translate(146,132)"/>
<path d="M0 0 C0 0.66 0 1.32 0 2 C-2.64 2.66 -5.28 3.32 -8 4 C-8.66 3.01 -9.32 2.02 -10 1 C-6.52674819 -0.1577506 -3.63932552 -0.06866652 0 0 Z " fill="#202020" transform="translate(221,105)"/>
<path d="M0 0 C0.66 0.66 1.32 1.32 2 2 C-1.51187196 4.40814077 -3.72656908 5.36629408 -8 5 C-5.59563974 1.39345961 -4.05320393 1.14547068 0 0 Z " fill="#121212" transform="translate(135,91)"/>
<path d="M0 0 C2.64 0 5.28 0 8 0 C8 1.32 8 2.64 8 4 C6.02 4 4.04 4 2 4 C2 3.34 2 2.68 2 2 C1.34 2 0.68 2 0 2 C0 1.34 0 0.68 0 0 Z " fill="#646464" transform="translate(110,88)"/>
<path d="M0 0 C-2 2 -2 2 -3.9453125 2.1953125 C-5.96354167 2.13020833 -7.98177083 2.06510417 -10 2 C-10 2.66 -10 3.32 -10 4 C-10.66 3.67 -11.32 3.34 -12 3 C-11.67 2.01 -11.34 1.02 -11 0 C-6.94952424 -1.35015859 -4.2079832 -0.62084998 0 0 Z " fill="#323232" transform="translate(238,85)"/>
<path d="M0 0 C2.46800047 1.15173355 4.04783565 2.04783565 6 4 C5.34 4 4.68 4 4 4 C4 4.66 4 5.32 4 6 C1.525 5.01 1.525 5.01 -1 4 C-0.67 2.68 -0.34 1.36 0 0 Z " fill="#E6E6E6" transform="translate(154,382)"/>
<path d="M0 0 C1.65 0 3.3 0 5 0 C4.67 0.99 4.34 1.98 4 3 C5.65 3 7.3 3 9 3 C9 3.66 9 4.32 9 5 C7.02 5 5.04 5 3 5 C2.67 4.01 2.34 3.02 2 2 C1.34 1.34 0.68 0.68 0 0 Z " fill="#060606" transform="translate(158,136)"/>
<path d="M0 0 C7.42857143 -0.14285714 7.42857143 -0.14285714 11 1 C11 1.66 11 2.32 11 3 C9.741875 3.020625 8.48375 3.04125 7.1875 3.0625 C6.47980469 3.07410156 5.77210937 3.08570312 5.04296875 3.09765625 C3 3 3 3 0 2 C0 1.34 0 0.68 0 0 Z " fill="#252525" transform="translate(121,100)"/>
<path d="M0 0 C3.3 0 6.6 0 10 0 C7.3144406 2.6855594 4.62378672 3.06049974 1 4 C0.67 2.68 0.34 1.36 0 0 Z " fill="#515151" transform="translate(185,72)"/>
<path d="M0 0 C0.33 0 0.66 0 1 0 C1.33 4.95 1.66 9.9 2 15 C1.01 15 0.02 15 -1 15 C-0.67 10.05 -0.34 5.1 0 0 Z " fill="#858585" transform="translate(182,416)"/>
<path d="M0 0 C0.33 0 0.66 0 1 0 C1.99 3.63 2.98 7.26 4 11 C3.01 11 2.02 11 1 11 C-0.28317892 7.15046324 -0.06643637 4.05261865 0 0 Z " fill="#666666" transform="translate(224,411)"/>
<path d="M0 0 C0.99 0 1.98 0 3 0 C2.67 2.31 2.34 4.62 2 7 C1.01 7.33 0.02 7.66 -1 8 C-0.67 5.36 -0.34 2.72 0 0 Z " fill="#4B4B4B" transform="translate(152,86)"/>
<path d="M0 0 C1.32 0 2.64 0 4 0 C4.33 1.32 4.66 2.64 5 4 C3.02 4.66 1.04 5.32 -1 6 C-1 2 -1 2 0 1 C0 0.67 0 0.34 0 0 Z " fill="#474747" transform="translate(135,86)"/>
<path d="M0 0 C0.33 0 0.66 0 1 0 C1 3.63 1 7.26 1 11 C0.01 11 -0.98 11 -2 11 C-2 10.01 -2 9.02 -2 8 C-1.34 8 -0.68 8 0 8 C-0.185625 7.05125 -0.37125 6.1025 -0.5625 5.125 C-1 2 -1 2 0 0 Z " fill="#636363" transform="translate(217,401)"/>
<path d="M0 0 C1.4540625 0.0309375 1.4540625 0.0309375 2.9375 0.0625 C3.2675 0.7225 3.5975 1.3825 3.9375 2.0625 C3.2775 2.0625 2.6175 2.0625 1.9375 2.0625 C1.6075 3.0525 1.2775 4.0425 0.9375 5.0625 C0.6075 4.0725 0.2775 3.0825 -0.0625 2.0625 C-2.07758358 1.32926204 -2.07758358 1.32926204 -4.0625 1.0625 C-3.0625 0.0625 -3.0625 0.0625 0 0 Z " fill="#020202" transform="translate(175.0625,135.9375)"/>
<path d="M0 0 C0 1.32 0 2.64 0 4 C-2.92879371 3.37240135 -5.36095629 2.41377341 -8 1 C-5.10765685 0.17361624 -3.11257569 0 0 0 Z " fill="#595959" transform="translate(144,131)"/>
<path d="M0 0 C3.96 0 7.92 0 12 0 C11.34 1.32 10.68 2.64 10 4 C9.34 3.34 8.68 2.68 8 2 C5.34462628 1.43479997 2.70855287 1.26211802 0 1 C0 0.67 0 0.34 0 0 Z " fill="#2A2A2A" transform="translate(139,119)"/>
<path d="M0 0 C0 0.99 0 1.98 0 3 C-4.625 5.125 -4.625 5.125 -8 4 C-2.25 0 -2.25 0 0 0 Z " fill="#5B5B5B" transform="translate(191,107)"/>
<path d="M0 0 C2.97 0.495 2.97 0.495 6 1 C5.34 2.65 4.68 4.3 4 6 C2.35 5.01 0.7 4.02 -1 3 C-0.67 2.01 -0.34 1.02 0 0 Z " fill="#242424" transform="translate(121,91)"/>
<path d="M0 0 C1.2077558 3.62326739 0.54311128 4.64146369 -1 8 C-1.66 8 -2.32 8 -3 8 C-2.74438677 5.6568787 -2.40729228 3.32156597 -2 1 C-1.34 0.67 -0.68 0.34 0 0 Z " fill="#101010" transform="translate(166,356)"/>
<path d="M0 0 C1.4540625 0.0309375 1.4540625 0.0309375 2.9375 0.0625 C2.9375 0.7225 2.9375 1.3825 2.9375 2.0625 C2.133125 2.18625 1.32875 2.31 0.5 2.4375 C-0.7684375 2.746875 -0.7684375 2.746875 -2.0625 3.0625 C-2.3925 3.7225 -2.7225 4.3825 -3.0625 5.0625 C-3.625 3.125 -3.625 3.125 -4.0625 1.0625 C-3.0625 0.0625 -3.0625 0.0625 0 0 Z " fill="#676767" transform="translate(207.0625,76.9375)"/>
<path d="M0 0 C0.33 0.66 0.66 1.32 1 2 C1.66 2 2.32 2 3 2 C3.66 3.98 4.32 5.96 5 8 C4.01 8 3.02 8 2 8 C0.74335022 5.09399739 0 3.20395416 0 0 Z " fill="#5C5C5C" transform="translate(166,353)"/>
<path d="M0 0 C3.125 -0.1875 3.125 -0.1875 6 0 C6 0.99 6 1.98 6 3 C3.36 3 0.72 3 -2 3 C-1.34 2.01 -0.68 1.02 0 0 Z " fill="#6B6B6B" transform="translate(141,116)"/>
<path d="M0 0 C1.65 0 3.3 0 5 0 C5 1.32 5 2.64 5 4 C3.0625 3.6875 3.0625 3.6875 1 3 C0.67 2.01 0.34 1.02 0 0 Z " fill="#333333" transform="translate(222,104)"/>
</svg>
